{
  "accessors": [
    {
      "bufferView": 2,
      "componentType": 5126,
      "count": 540,
      "max": [
        1.0,
        1.0,
        1.2888599634170532
      ],
      "min": [
        -1.0,
        -1.0,
        -1.1547499895095825
      ],
      "type": "VEC3"
    },
    {
      "bufferView": 2,
      "byteOffset": 6480,
      "componentType": 5126,
      "count": 540,
      "max": [
        0.8760131597518921,
        0.8760131597518921,
        0.9956411719322205
      ],
      "min": [
        -0.8760131597518921,
        -0.8760131597518921,
        -0.9998341798782349
      ],
      "type": "VEC3"
    },
    {
      "bufferView": 1,
      "componentType": 5126,
      "count": 540,
      "max": [
        0.9998199939727783,
        0.9966099858283997
      ],
      "min": [
        0.00018000000272877514,
        0.00018000000272877514
      ],
      "type": "VEC2"
    },
    {
      "bufferView": 0,
      "componentType": 5125,
      "count": 2676,
      "type": "SCALAR"
    },
    {
      "bufferView": 2,
      "byteOffset": 12960,
      "componentType": 5126,
      "count": 30,
      "max": [
        1.0,
        1.0,
        0.0745600014925003
      ],
      "min": [
        -1.0,
        -1.0,
        0.0
      ],
      "type": "VEC3"
    },
    {
      "bufferView": 2,
      "byteOffset": 13320,
      "componentType": 5126,
      "count": 30,
      "max": [
        0.9981402158737183,
        1.0,
        1.0
      ],
      "min": [
        -1.0,
        -1.0,
        -1.0
      ],
      "type": "VEC3"
    },
    {
      "bufferView": 1,
      "byteOffset": 4320,
      "componentType": 5126,
      "count": 30,
      "max": [
        0.5243099927902222,
        0.9998999834060669
      ],
      "min": [
        9.999999747378752e-05,
        9.999999747378752e-05
      ],
      "type": "VEC2"
    },
    {
      "bufferView": 0,
      "byteOffset": 10704,
      "componentType": 5125,
      "count": 48,
      "type": "SCALAR"
    },
    {
      "bufferView": 2,
      "byteOffset": 13680,
      "componentType": 5126,
      "count": 30,
      "max": [
        1.0,
        1.0,
        0.0745600014925003
      ],
      "min": [
        -1.0,
        -1.0,
        0.0
      ],
      "type": "VEC3"
    },
    {
      "bufferView": 2,
      "byteOffset": 14040,
      "componentType": 5126,
      "count": 30,
      "max": [
        0.9981402158737183,
        1.0,
        1.0
      ],
      "min": [
        -1.0,
        -1.0,
        -1.0
      ],
      "type": "VEC3"
    },
    {
      "bufferView": 1,
      "byteOffset": 4560,
      "componentType": 5126,
      "count": 30,
      "max": [
        0.809249997138977,
        0.9998800158500671
      ],
      "min": [
        0.00011999999696854502,
        0.00011999999696854502
      ],
      "type": "VEC2"
    },
    {
      "bufferView": 0,
      "byteOffset": 10896,
      "componentType": 5125,
      "count": 48,
      "type": "SCALAR"
    },
    {
      "bufferView": 2,
      "byteOffset": 14400,
      "componentType": 5126,
      "count": 30,
      "max": [
        1.0,
        1.0,
        0.0745600014925003
      ],
      "min": [
        -1.0,
        -1.0,
        0.0
      ],
      "type": "VEC3"
    },
    {
      "bufferView": 2,
      "byteOffset": 14760,
      "componentType": 5126,
      "count": 30,
      "max": [
        0.9981402158737183,
        1.0,
        1.0
      ],
      "min": [
        -1.0,
        -1.0,
        -1.0
      ],
      "type": "VEC3"
    },
    {
      "bufferView": 1,
      "byteOffset": 4800,
      "componentType": 5126,
      "count": 30,
      "max": [
        0.809249997138977,
        0.9998800158500671
      ],
      "min": [
        0.00011999999696854502,
        0.00011999999696854502
      ],
      "type": "VEC2"
    },
    {
      "bufferView": 0,
      "byteOffset": 11088,
      "componentType": 5125,
      "count": 48,
      "type": "SCALAR"
    },
    {
      "bufferView": 2,
      "byteOffset": 15120,
      "componentType": 5126,
      "count": 326,
      "max": [
        1.0,
        1.0,
        -3.4344699382781982
      ],
      "min": [
        -1.0,
        -1.0,
        -9.719229698181152
      ],
      "type": "VEC3"
    },
    {
      "bufferView": 2,
      "byteOffset": 19032,
      "componentType": 5126,
      "count": 326,
      "max": [
        0.9990511536598206,
        0.9990511536598206,
        0.8014353513717651
      ],
      "min": [
        -0.9990511536598206,
        -0.9990511536598206,
        -0.7265371680259705
      ],
      "type": "VEC3"
    },
    {
      "bufferView": 1,
      "byteOffset": 5040,
      "componentType": 5126,
      "count": 326,
      "max": [
        0.9998700022697449,
        0.6920999884605408
      ],
      "min": [
        0.00013000000035390258,
        0.00013000000035390258
      ],
      "type": "VEC2"
    },
    {
      "bufferView": 0,
      "byteOffset": 11280,
      "componentType": 5125,
      "count": 1332,
      "type": "SCALAR"
    },
    {
      "bufferView": 2,
      "byteOffset": 22944,
      "componentType": 5126,
      "count": 30,
      "max": [
        1.0,
        1.0,
        0.0745600014925003
      ],
      "min": [
        -1.0,
        -1.0,
        0.0
      ],
      "type": "VEC3"
    },
    {
      "bufferView": 2,
      "byteOffset": 23304,
      "componentType": 5126,
      "count": 30,
      "max": [
        0.9981402158737183,
        1.0,
        1.0
      ],
      "min": [
        -1.0,
        -1.0,
        -1.0
      ],
      "type": "VEC3"
    },
    {
      "bufferView": 1,
      "byteOffset": 7648,
      "componentType": 5126,
      "count": 30,
      "max": [
        0.8398600220680237,
        0.9998800158500671
      ],
      "min": [
        0.00011999999696854502,
        0.00011999999696854502
      ],
      "type": "VEC2"
    },
    {
      "bufferView": 0,
      "byteOffset": 16608,
      "componentType": 5125,
      "count": 48,
      "type": "SCALAR"
    },
    {
      "bufferView": 2,
      "byteOffset": 23664,
      "componentType": 5126,
      "count": 30,
      "max": [
        1.0,
        1.0,
        0.0745600014925003
      ],
      "min": [
        -1.0,
        -1.0,
        0.0
      ],
      "type": "VEC3"
    },
    {
      "bufferView": 2,
      "byteOffset": 24024,
      "componentType": 5126,
      "count": 30,
      "max": [
        0.9981402158737183,
        1.0,
        1.0
      ],
      "min": [
        -1.0,
        -1.0,
        -1.0
      ],
      "type": "VEC3"
    },
    {
      "bufferView": 1,
      "byteOffset": 7888,
      "componentType": 5126,
      "count": 30,
      "max": [
        0.9356300234794617,
        0.9998800158500671
      ],
      "min": [
        0.00011999999696854502,
        0.00011999999696854502
      ],
      "type": "VEC2"
    },
    {
      "bufferView": 0,
      "byteOffset": 16800,
      "componentType": 5125,
      "count": 48,
      "type": "SCALAR"
    },
    {
      "bufferView": 2,
      "byteOffset": 24384,
      "componentType": 5126,
      "count": 30,
      "max": [
        1.0,
        1.0,
        0.0745600014925003
      ],
      "min": [
        -1.0,
        -1.0,
        0.0
      ],
      "type": "VEC3"
    },
    {
      "bufferView": 2,
      "byteOffset": 24744,
      "componentType": 5126,
      "count": 30,
      "max": [
        0.9981402158737183,
        1.0,
        1.0
      ],
      "min": [
        -1.0,
        -1.0,
        -1.0
      ],
      "type": "VEC3"
    },
    {
      "bufferView": 1,
      "byteOffset": 8128,
      "componentType": 5126,
      "count": 30,
      "max": [
        0.809249997138977,
        0.9998800158500671
      ],
      "min": [
        0.00011999999696854502,
        0.00011999999696854502
      ],
      "type": "VEC2"
    },
    {
      "bufferView": 0,
      "byteOffset": 16992,
      "componentType": 5125,
      "count": 48,
      "type": "SCALAR"
    }
  ],
  "asset": {
    "extras": {
      "author": "Marcelino Borges (https://sketchfab.com/marcelino_borges)",
      "license": "CC-BY-4.0 (http://creativecommons.org/licenses/by/4.0/)",
      "source": "https://sketchfab.com/3d-models/missil-8fb580bbacf24316b5903f43f7adc0d3",
      "title": "Missil"
    },
    "generator": "Sketchfab-12.66.0",
    "version": "2.0"
  },
  "bufferViews": [
    {
      "buffer": 0,
      "byteLength": 17184,
      "name": "floatBufferViews",
      "target": 34963
    },
    {
      "buffer": 0,
      "byteLength": 8368,
      "byteOffset": 17184,
      "byteStride": 8,
      "name": "floatBufferViews",
      "target": 34962
    },
    {
      "buffer": 0,
      "byteLength": 25104,
      "byteOffset": 25552,
      "byteStride": 12,
      "name": "floatBufferViews",
      "target": 34962
    }
  ],
  "buffers": [
    {
      "byteLength": 50656,
      "uri": "scene.bin"
    }
  ],
  "materials": [
    {
      "doubleSided": true,
      "name": "small_wings",
      "pbrMetallicRoughness": {
        "baseColorFactor": [
          0.0444549657,
          0.0444549657,
          0.0444549657,
          1.0
        ],
        "metallicFactor": 0.0,
        "roughnessFactor": 0.6
      }
    },
    {
      "doubleSided": true,
      "name": "big_wings",
      "pbrMetallicRoughness": {
        "baseColorFactor": [
          0.8000000715,
          0.065138869,
          0.0375397094,
          1.0
        ],
        "metallicFactor": 0.0,
        "roughnessFactor": 0.6
      }
    },
    {
      "doubleSided": true,
      "name": "body",
      "pbrMetallicRoughness": {
        "baseColorFactor": [
          0.8000000715,
          0.6190950274,
          0.3771052361,
          1.0
        ],
        "roughnessFactor": 0.5504954268292683
      }
    }
  ],
  "meshes": [
    {
      "name": "Cylinder_0",
      "primitives": [
        {
          "attributes": {
            "NORMAL": 1,
            "POSITION": 0,
            "TEXCOORD_0": 2
          },
          "indices": 3,
          "material": 2,
          "mode": 4
        }
      ]
    },
    {
      "name": "Plane_0",
      "primitives": [
        {
          "attributes": {
            "NORMAL": 5,
            "POSITION": 4,
            "TEXCOORD_0": 6
          },
          "indices": 7,
          "material": 0,
          "mode": 4
        }
      ]
    },
    {
      "name": "Plane.002_0",
      "primitives": [
        {
          "attributes": {
            "NORMAL": 9,
            "POSITION": 8,
            "TEXCOORD_0": 10
          },
          "indices": 11,
          "material": 0,
          "mode": 4
        }
      ]
    },
    {
      "name": "Plane.003_0",
      "primitives": [
        {
          "attributes": {
            "NORMAL": 13,
            "POSITION": 12,
            "TEXCOORD_0": 14
          },
          "indices": 15,
          "material": 0,
          "mode": 4
        }
      ]
    },
    {
      "name": "Cylinder.001_0",
      "primitives": [
        {
          "attributes": {
            "NORMAL": 17,
            "POSITION": 16,
            "TEXCOORD_0": 18
          },
          "indices": 19,
          "material": 2,
          "mode": 4
        }
      ]
    },
    {
      "name": "Plane.004_0",
      "primitives": [
        {
          "attributes": {
            "NORMAL": 21,
            "POSITION": 20,
            "TEXCOORD_0": 22
          },
          "indices": 23,
          "material": 1,
          "mode": 4
        }
      ]
    },
    {
      "name": "Plane.005_0",
      "primitives": [
        {
          "attributes": {
            "NORMAL": 25,
            "POSITION": 24,
            "TEXCOORD_0": 26
          },
          "indices": 27,
          "material": 1,
          "mode": 4
        }
      ]
    },
    {
      "name": "Plane.001_0",
      "primitives": [
        {
          "attributes": {
            "NORMAL": 29,
            "POSITION": 28,
            "TEXCOORD_0": 30
          },
          "indices": 31,
          "material": 0,
          "mode": 4
        }
      ]
    }
  ],
  "nodes": [
    {
      "children": [
        1
      ],
      "matrix": [
        1.0,
        0.0,
        0.0,
        0.0,
        0.0,
        -0.9999906420707703,
        0.00432246411219217,
        0.0,
        0.0,
        -0.00432246411219217,
        -0.9999906420707703,
        0.0,
        0.0,
        7.412463188171386,
        5.273181915283205,
        1.0
      ],
      "name": "Sketchfab_model"
    },
    {
      "children": [
        2,
        4,
        6,
        8,
        10,
        12,
        14,
        16,
        18
      ],
      "name": "Root"
    },
    {
      "children": [
        3
      ],
      "matrix": [
        -0.29086000000000006,
        0.9551700000000001,
        -0.05519000000000001,
        0.0,
        -0.7711,
        -0.19988000000000003,
        0.6045200000000001,
        0.0,
        0.5663900000000001,
        0.21839000000000003,
        0.7946700000000001,
        0.0,
        4.076250000000001,
        1.00545,
        10.581719999999999,
        1.0
      ],
      "name": "Lamp"
    },
    {
      "name": "Lamp"
    },
    {
      "children": [
        5
      ],
      "matrix": [
        0.8699500000000001,
        0.0,
        0.0,
        0.0,
        0.0,
        0.8699500000000001,
        0.0,
        0.0,
        0.0,
        0.0,
        4.7535099999999995,
        0.0,
        -0.6031900000000001,
        1.05713,
        6.347029999999999,
        1.0
      ],
      "name": "Cylinder"
    },
    {
      "mesh": 0,
      "name": "Cylinder_0"
    },
    {
      "children": [
        7
      ],
      "matrix": [
        0.41362000000000004,
        0.0,
        0.0,
        0.0,
        0.0,
        -0.0,
        1.0,
        0.0,
        0.0,
        -1.0,
        -0.0,
        0.0,
        0.6773700000000001,
        1.11707,
        2.5161,
        1.0
      ],
      "name": "Plane"
    },
    {
      "mesh": 1,
      "name": "Plane_0"
    },
    {
      "children": [
        9
      ],
      "matrix": [
        -0.41362000000000004,
        -0.0,
        0.0,
        0.0,
        0.0,
        -0.0,
        1.0,
        0.0,
        0.0,
        -1.0,
        -0.0,
        0.0,
        -1.8749500000000001,
        1.11707,
        2.5161,
        1.0
      ],
      "name": "Plane.002"
    },
    {
      "mesh": 2,
      "name": "Plane.002_0"
    },
    {
      "children": [
        11
      ],
      "matrix": [
        0.0,
        -0.41362000000000004,
        0.0,
        0.0,
        0.0,
        0.0,
        1.0,
        0.0,
        1.0,
        0.0,
        -0.0,
        0.0,
        -0.62346,
        -0.22428000000000003,
        2.6404,
        1.0
      ],
      "name": "Plane.003"
    },
    {
      "mesh": 3,
      "name": "Plane.003_0"
    },
    {
      "children": [
        13
      ],
      "matrix": [
        0.8478000000000001,
        0.0,
        0.0,
        0.0,
        0.0,
        0.8478000000000001,
        0.0,
        0.0,
        0.0,
        0.0,
        -0.13570000000000002,
        0.0,
        -0.61341,
        1.05249,
        -0.27679,
        1.0
      ],
      "name": "Cylinder.001"
    },
    {
      "mesh": 4,
      "name": "Cylinder.001_0"
    },
    {
      "children": [
        15
      ],
      "matrix": [
        -0.79648,
        -0.0,
        0.0,
        0.0,
        0.0,
        -0.0,
        1.9255999999999998,
        0.0,
        0.0,
        -1.9255999999999998,
        -0.0,
        0.0,
        -2.25263,
        1.11707,
        6.88727,
        1.0
      ],
      "name": "Plane.004"
    },
    {
      "mesh": 5,
      "name": "Plane.004_0"
    },
    {
      "children": [
        17
      ],
      "matrix": [
        0.79648,
        0.0,
        0.0,
        0.0,
        0.0,
        -0.0,
        1.9255999999999998,
        0.0,
        0.0,
        -1.9255999999999998,
        -0.0,
        0.0,
        1.06124,
        1.11707,
        6.88727,
        1.0
      ],
      "name": "Plane.005"
    },
    {
      "mesh": 6,
      "name": "Plane.005_0"
    },
    {
      "children": [
        19
      ],
      "matrix": [
        -0.0,
        0.41362000000000004,
        0.0,
        0.0,
        0.0,
        0.0,
        1.0,
        0.0,
        1.0,
        0.0,
        -0.0,
        0.0,
        -0.62346,
        2.33159,
        2.6404,
        1.0
      ],
      "name": "Plane.001"
    },
    {
      "mesh": 7,
      "name": "Plane.001_0"
    }
  ],
  "scene": 0,
  "scenes": [
    {
      "name": "Sketchfab_Scene",
      "nodes": [
        0
      ]
    }
  ]
}
